<svg xmlns="http://www.w3.org/2000/svg" width="18" height="18" viewBox="0 0 18 18"><path fill="#ed1c24" d="M16.5 14.2c-.43-.3-2.86-1.91-3.32-2.2a.74.74 0 0 0-.34.1l-1.48.83-.58.34-.56-.4c-.41-.28-1.3-.97-2.66-2.33a22 22 0 0 1-2.34-2.66l-.38-.55.33-.59L6 5.26c.1-.18.1-.3.1-.33V4.9c-.25-.4-1.9-2.89-2.2-3.32-.05-.01-.14 0-.25.08-.94.67-1.91 1.63-2.05 2 .09 2 1.84 4.8 4.94 7.9 3.1 3.09 5.89 4.84 7.88 4.93.38-.13 1.34-1.1 2.01-2.03a.4.4 0 0 0 .07-.23v-.05zm.77.88c-.02.02-1.8 2.52-2.83 2.49-2.9-.1-6.3-2.91-8.65-5.26C3.44 9.97.63 6.56.53 3.65v-.02C.53 2.6 3 .82 3.03.8 3.7.33 4.44.5 4.74.93L7.03 4.4c.09.15.14.34.14.54 0 .26-.08.55-.23.83-.14.27-.61 1.1-.85 1.5.25.37.9 1.2 2.22 2.53a20.47 20.47 0 0 0 2.53 2.22l1.51-.85c.51-.27 1.02-.3 1.37-.08.33.2 3.15 2.1 3.42 2.29.26.18.39.5.39.87 0 .28-.08.58-.26.84z"/></svg>