<svg xmlns="http://www.w3.org/2000/svg" width="17" height="22" viewBox="0 0 17 22"><path fill="#fff" d="M8.4 2.06c4.5 0 6.52 3.4 6.52 6.75 0 2.96-2.1 6.88-6.26 11.67a.68.68 0 0 1-.09.07.68.68 0 0 1-.09-.07l-.34-.4C5.42 16.97 1.7 12.7 1.7 8.8a6.8 6.8 0 0 1 6.68-6.75c3.62 0 0 0 0 0zM.37 8.81c0 4.58 4.26 9.26 7.12 12.55.01.02.48.53 1.05.53h.05c.57 0 1.03-.51 1.04-.53 2.68-3.08 6.6-8.18 6.6-12.55 0-4.37-2.86-8.07-7.85-8.07-4.33 0-8 3.7-8 8.07zm7.93-2.77a2.65 2.65 0 0 1 2.64 2.64 2.65 2.65 0 0 1-2.61 2.67 2.7 2.7 0 0 1-2.68-2.67 2.65 2.65 0 0 1 2.65-2.64c1.46 0 0 0 0 0zM4.37 8.7a3.96 3.96 0 1 0 7.93 0 3.96 3.96 0 0 0-7.93 0z"/></svg>