<svg xmlns="http://www.w3.org/2000/svg" width="23" height="22" viewBox="0 0 23 22"><path fill="#fff" d="M5.1 1.42h.05l2.72 4.13c0 .06-.01.21-.13.43L6.71 7.8l-.41.73.48.69c.36.51 1.21 1.62 2.9 3.3 1.7 1.7 2.8 2.56 3.31 2.92l.7.48.72-.42 1.84-1.03a.94.94 0 0 1 .41-.13h.02c.5.32 3.6 2.37 4.14 2.74 0 .06 0 .17-.1.32-.84 1.16-2.03 2.37-2.5 2.54-2.48-.11-5.96-2.3-9.8-6.14C4.56 9.96 2.38 6.48 2.26 4c.17-.46 1.38-1.66 2.53-2.5.09-.05.2-.09.3-.09.09 0 0 0 0 0zM4.04.43C4.02.45.9 2.71.95 4c.11 3.6 3.61 7.84 6.53 10.75 2.92 2.92 7.15 6.42 10.77 6.54h.03c1.26 0 3.49-3.07 3.51-3.1.58-.84.37-1.76-.16-2.13a307.6 307.6 0 0 0-4.3-2.85 1.28 1.28 0 0 0-.67-.17c-.32 0-.68.1-1.03.28-.34.18-1.37.77-1.88 1.06a24.97 24.97 0 0 1-3.13-2.76 25.12 25.12 0 0 1-2.76-3.14l1.05-1.88c.34-.64.38-1.28.1-1.7-.25-.41-2.6-3.97-2.84-4.3A1.31 1.31 0 0 0 5.1.1c-.35 0-.72.1-1.04.33zm17.77.87a.66.66 0 0 0-.93-.93l-5.43 5.41.02-3.2c0-.26-.2-.5-.47-.49h-.34c-.27.01-.49.17-.5.44l-.01 4.77.02.01-.03.24c0 .14.03.26.12.34.08.09.2.14.34.14h.24l.01-.01 4.74.02c.27 0 .49-.23.5-.5v-.33a.54.54 0 0 0-.56-.5h-3.13z"/></svg>