<?xml version="1.0" encoding="iso-8859-1"?>
<!-- Generator: Adobe Illustrator 19.0.0, SVG Export Plug-In . SVG Version: 6.00 Build 0)  -->
<svg version="1.1" id="target" xmlns="http://www.w3.org/2000/svg" xmlns:xlink="http://www.w3.org/1999/xlink" x="0px" y="0px"
	 viewBox="355 15 1321 764" xml:space="preserve">
<path style="fill:#ED1C24;" d="M1340.22,132.93L1340.22,132.93c-185.26,0-335.2,144.87-335.2,323.02
	c0,99.711,46.981,188.846,120.827,248.016l5.927-7.602c-71.405-57.438-116.794-143.811-116.794-240.414
	c0-172.92,145.41-313.11,325.24-313.11c153.892,0,282.836,102.683,316.826,240.68h10.115
	C1632.986,240.142,1499.583,132.93,1340.22,132.93z"/>
<path style="fill:#ED1C24;" d="M1345,15h-10v146.893c-0.001,0.023-0.01,0.044-0.01,0.067v15.5c0,0.023,0.009,0.044,0.01,0.067V178
	h0.071c0.389,1.693,2.543,3,5.159,3c2.625,0,4.35-1.307,4.656-3H1345V15z"/>
<g>
	<path style="fill:#ED1C24;" d="M1050,451.092V451H355.7v9.98L1050,461v-0.089c1.705-0.38,3.01-2.53,3.01-5.161
		C1053.01,453.124,1051.701,451.39,1050,451.092z"/>
</g>
</svg>
